<svg width="145" height="45" viewBox="0 0 145 45" fill="none" xmlns="http://www.w3.org/2000/svg">
<path d="M128.266 26.6144C128.404 26.6144 128.542 26.6075 128.68 26.5941C128.817 26.5802 128.953 26.5599 129.089 26.5331C129.225 26.5064 129.359 26.4727 129.491 26.4326C129.624 26.3924 129.754 26.3459 129.881 26.293C130.009 26.24 130.134 26.1806 130.256 26.1159C130.378 26.0507 130.496 25.9795 130.611 25.9025C130.726 25.826 130.837 25.7437 130.944 25.6559C131.051 25.5682 131.153 25.4752 131.251 25.3778C131.349 25.2799 131.442 25.1772 131.529 25.0708C131.617 24.9638 131.699 24.8526 131.776 24.7376C131.853 24.6226 131.924 24.5044 131.989 24.3824C132.054 24.2605 132.113 24.1359 132.166 24.008C132.219 23.8802 132.266 23.7502 132.306 23.6176C132.346 23.4855 132.379 23.3512 132.407 23.2159C132.433 23.08 132.454 22.9436 132.468 22.8062C132.481 22.6682 132.488 22.5302 132.488 22.3922C132.488 22.2537 132.481 22.1157 132.468 21.9782C132.454 21.8407 132.433 21.7038 132.407 21.5685C132.379 21.4326 132.346 21.2989 132.306 21.1663C132.266 21.0342 132.219 20.9042 132.166 20.7764C132.113 20.6485 132.054 20.5239 131.989 20.402C131.924 20.28 131.853 20.1613 131.776 20.0463C131.699 19.9313 131.617 19.8206 131.529 19.7136C131.442 19.6066 131.349 19.5045 131.251 19.4066C131.153 19.3087 131.051 19.2162 130.944 19.1284C130.837 19.0407 130.726 18.9584 130.611 18.8813C130.496 18.8049 130.378 18.7337 130.256 18.6685C130.134 18.6032 130.009 18.5444 129.881 18.4914C129.754 18.4385 129.624 18.3919 129.491 18.3518C129.359 18.3117 129.225 18.278 129.089 18.2513C128.953 18.224 128.817 18.2037 128.68 18.1903C128.542 18.1769 128.404 18.17 128.266 18.17M128.266 38.1082C128.756 38.1082 129.247 38.0835 129.738 38.036C130.226 37.9865 130.711 37.9143 131.194 37.8192C131.675 37.7241 132.153 37.6043 132.623 37.4616C133.094 37.319 133.556 37.1536 134.011 36.9653C134.463 36.777 134.908 36.5659 135.342 36.3358C135.776 36.1038 136.196 35.8509 136.605 35.577C137.014 35.3051 137.409 35.0122 137.79 34.7003C138.168 34.3884 138.533 34.0575 138.881 33.7114C139.227 33.3634 139.558 32.9983 139.87 32.6198C140.182 32.2395 140.475 31.8439 140.747 31.435C141.021 31.0262 141.274 30.6059 141.506 30.1723C141.736 29.7387 141.947 29.2956 142.135 28.8411C142.323 28.3865 142.489 27.9244 142.631 27.4528C142.774 26.9831 142.892 26.5057 142.989 26.0246C143.084 25.5415 143.156 25.0566 143.206 24.5678C143.253 24.0772 143.278 23.5865 143.278 23.0959C143.278 22.6033 143.253 22.1127 143.206 21.6239C143.156 21.1352 143.084 20.6484 142.989 20.1672C142.892 19.6842 142.774 19.2087 142.631 18.7371C142.489 18.2674 142.323 17.8053 142.135 17.3507C141.947 16.8962 141.736 16.4531 141.506 16.0195C141.274 15.5859 141.021 15.1637 140.747 14.7549C140.475 14.346 140.182 13.9523 139.87 13.572C139.558 13.1916 139.227 12.8284 138.881 12.4804C138.533 12.1324 138.168 11.8034 137.79 11.4915C137.409 11.1796 137.014 10.8867 136.605 10.6129C136.196 10.3409 135.776 10.088 135.342 9.85598C134.908 9.62397 134.463 9.41478 134.011 9.2265C133.556 9.03823 133.094 8.87278 132.623 8.73015C132.153 8.58752 131.675 8.46771 131.194 8.37262C130.711 8.27563 130.226 8.20337 129.738 8.15582C129.247 8.10828 128.756 8.08356 128.266 8.08356M128.266 34.1206C128.626 34.1206 128.986 34.1024 129.347 34.0675C129.706 34.0312 130.062 33.9781 130.416 33.9083C130.77 33.8385 131.12 33.7505 131.465 33.6457C131.812 33.541 132.151 33.4195 132.485 33.2812C132.817 33.143 133.144 32.9879 133.462 32.819C133.781 32.6486 134.089 32.4628 134.39 32.2617C134.69 32.062 134.98 31.8469 135.26 31.6179C135.538 31.3889 135.806 31.1458 136.061 30.8917C136.316 30.6361 136.559 30.3679 136.788 30.09C137.017 29.8107 137.232 29.5202 137.431 29.2199C137.633 28.9197 137.818 28.611 137.989 28.2926C138.158 27.9742 138.313 27.6488 138.451 27.315C138.589 26.9812 138.711 26.6418 138.815 26.2955C138.92 25.9505 139.007 25.6 139.078 25.2466C139.148 24.8919 139.201 24.5358 139.237 24.1769C139.272 23.8165 139.29 23.4562 139.29 23.0959C139.29 22.7342 139.272 22.3739 139.237 22.0149C139.201 21.656 139.148 21.2985 139.078 20.9451C139.007 20.5904 138.92 20.2413 138.815 19.8949C138.711 19.55 138.589 19.2106 138.451 18.8768C138.313 18.543 138.158 18.2176 137.989 17.8992C137.818 17.5808 137.633 17.2707 137.431 16.9704C137.232 16.6702 137.017 16.3811 136.788 16.1018C136.559 15.8225 136.316 15.5557 136.061 15.3001C135.806 15.0446 135.538 14.8029 135.26 14.5739C134.98 14.3449 134.69 14.1298 134.39 13.9287C134.089 13.729 133.781 13.5432 133.462 13.3728C133.144 13.2024 132.817 13.0488 132.485 12.9106C132.151 12.7723 131.812 12.6508 131.465 12.5461C131.12 12.4413 130.77 12.3533 130.416 12.2835C130.062 12.2123 129.706 12.1592 129.347 12.1243C128.986 12.0894 128.626 12.0712 128.266 12.0712" stroke="url(#paint0_linear_1456_2263)" stroke-width="2.33871"/>
<path d="M53.6447 2.58976H50.6687V11.7827H48.2985V2.58976H45.209V0.787518H53.6447V2.58976Z" fill="#004B77"/>
<path d="M56.5373 4.78576C57.0472 3.94775 57.7616 3.52874 58.6803 3.52874C58.8772 3.52874 59.0438 3.54136 59.1801 3.5666C59.3215 3.58679 59.5007 3.62718 59.7178 3.68776L59.4527 5.71717C59.0186 5.56068 58.6349 5.48495 58.3017 5.49C57.9382 5.49 57.6303 5.55563 57.3779 5.68688C57.1255 5.81309 56.9134 6.01502 56.7418 6.29268V11.7827H54.4095V3.65747H56.2572L56.5373 4.78576Z" fill="#004B77"/>
<path d="M63.9356 3.49845C65.0816 3.49845 65.96 3.78115 66.5708 4.34656C67.1817 4.91197 67.4871 5.73232 67.4871 6.8076V11.7827H65.5637L65.2987 10.821C64.9655 11.1744 64.5894 11.4445 64.1704 11.6312C63.7564 11.813 63.3122 11.9039 62.8376 11.9039C61.9996 11.9039 61.3332 11.6868 60.8385 11.2526C60.3488 10.8185 60.104 10.2354 60.104 9.50339C60.104 8.65528 60.4599 7.99395 61.1717 7.51941C61.8885 7.04487 62.8881 6.8076 64.1704 6.8076H65.1624V6.60315C65.1321 5.66417 64.5995 5.19467 63.5646 5.19467C63.2112 5.19467 62.8023 5.24768 62.3378 5.3537C61.8734 5.45466 61.4544 5.58592 61.0808 5.74746L60.5886 4.17997C61.1237 3.96289 61.6866 3.7963 62.2773 3.68019C62.8679 3.55903 63.4207 3.49845 63.9356 3.49845ZM64.3672 8.07977C63.7059 8.07977 63.191 8.19336 62.8225 8.42053C62.459 8.64771 62.2773 8.96322 62.2773 9.36709C62.2773 9.70027 62.3782 9.95521 62.5802 10.1319C62.7821 10.3035 63.0673 10.3894 63.4358 10.3894C63.769 10.3894 64.0871 10.3162 64.39 10.1698C64.6979 10.0234 64.9554 9.82648 65.1624 9.57911V8.07977H64.3672Z" fill="#004B77"/>
<path d="M71.6519 4.78576C72.3688 3.94775 73.3103 3.52874 74.4764 3.52874C75.3246 3.52874 75.9783 3.77863 76.4377 4.27841C76.8971 4.77314 77.1268 5.47485 77.1268 6.38355V11.7827H74.8021V6.51228C74.8021 6.03774 74.7087 5.69446 74.5219 5.48243C74.3351 5.2704 74.0347 5.16439 73.6208 5.16439C73.2472 5.16439 72.8989 5.25021 72.5758 5.42185C72.2527 5.58844 71.9927 5.81561 71.7958 6.10337V11.7827H69.4635V3.65747H71.402L71.6519 4.78576Z" fill="#004B77"/>
<path d="M79.5348 2.78664C79.5348 1.92843 79.7898 1.24944 80.2996 0.749656C80.8095 0.249875 81.5087 -1.52588e-05 82.3972 -1.52588e-05C82.7809 -1.52588e-05 83.1418 0.0378469 83.4801 0.113571C83.8234 0.189296 84.2171 0.320551 84.6614 0.507338L84.0934 1.82494C83.629 1.66844 83.2403 1.5902 82.9273 1.5902C82.5739 1.5902 82.2988 1.69116 82.1019 1.89309C81.9101 2.09503 81.8141 2.38783 81.8141 2.7715V3.65747H83.7678V5.28554H81.8141V11.086C81.8141 12.1512 81.5441 13.1735 81.0039 14.1529H79.5348V5.28554H78.1945V3.65747H79.5348V2.78664Z" fill="#004B77"/>
<path d="M88.281 3.46816C89.6188 3.46816 90.6436 3.83416 91.3554 4.56616C92.0672 5.29312 92.4231 6.33811 92.4231 7.70115C92.4231 9.06419 92.0672 10.1142 91.3554 10.8513C90.6436 11.5883 89.6188 11.9569 88.281 11.9569C86.9583 11.9569 85.9386 11.5909 85.2217 10.8589C84.5049 10.1218 84.1464 9.06924 84.1464 7.70115C84.1464 6.33811 84.5024 5.29312 85.2142 4.56616C85.926 3.83416 86.9482 3.46816 88.281 3.46816ZM88.281 5.20982C87.0846 5.20477 86.4863 6.03521 86.4863 7.70115C86.4863 9.36709 87.0846 10.2001 88.281 10.2001C89.4825 10.2001 90.0832 9.36709 90.0832 7.70115C90.0832 6.03521 89.4825 5.20477 88.281 5.20982Z" fill="#004B77"/>
<path d="M96.1412 4.78576C96.6511 3.94775 97.3654 3.52874 98.2842 3.52874C98.4811 3.52874 98.6477 3.54136 98.784 3.5666C98.9253 3.58679 99.1045 3.62718 99.3216 3.68776L99.0566 5.71717C98.6224 5.56068 98.2388 5.48495 97.9056 5.49C97.5421 5.49 97.2341 5.55563 96.9817 5.68688C96.7293 5.81309 96.5173 6.01502 96.3456 6.29268V11.7827H94.0133V3.65747H95.861L96.1412 4.78576Z" fill="#004B77"/>
<path d="M102.669 4.78576C103.345 3.94775 104.246 3.52874 105.372 3.52874C105.953 3.52874 106.45 3.6499 106.864 3.89222C107.283 4.12949 107.596 4.47529 107.803 4.92964C108.186 4.4551 108.61 4.10424 109.075 3.87707C109.539 3.64485 110.062 3.52874 110.642 3.52874C111.511 3.52874 112.18 3.77863 112.649 4.27841C113.119 4.77314 113.353 5.47485 113.353 6.38355V11.7827H111.029V6.51228C111.029 6.03774 110.935 5.69446 110.748 5.48243C110.562 5.2704 110.261 5.16439 109.847 5.16439C109.474 5.16439 109.133 5.24768 108.825 5.41428C108.517 5.57582 108.26 5.80552 108.053 6.10337C108.053 6.12356 108.058 6.17152 108.068 6.24724C108.078 6.31792 108.083 6.40122 108.083 6.49713V11.7827H105.758V6.51228C105.758 6.03774 105.665 5.69446 105.478 5.48243C105.291 5.2704 104.991 5.16439 104.577 5.16439C104.213 5.16439 103.875 5.25021 103.562 5.42185C103.249 5.58844 102.999 5.81561 102.812 6.10337V11.7827H100.488V3.65747H102.426L102.669 4.78576Z" fill="#004B77"/>
<path d="M118.503 3.49845C119.649 3.49845 120.527 3.78115 121.138 4.34656C121.749 4.91197 122.054 5.73232 122.054 6.8076V11.7827H120.131L119.866 10.821C119.532 11.1744 119.156 11.4445 118.737 11.6312C118.323 11.813 117.879 11.9039 117.405 11.9039C116.567 11.9039 115.9 11.6868 115.405 11.2526C114.916 10.8185 114.671 10.2354 114.671 9.50339C114.671 8.65528 115.027 7.99395 115.739 7.51941C116.456 7.04487 117.455 6.8076 118.737 6.8076H119.729V6.60315C119.699 5.66417 119.166 5.19467 118.132 5.19467C117.778 5.19467 117.369 5.24768 116.905 5.3537C116.44 5.45466 116.021 5.58592 115.648 5.74746L115.156 4.17997C115.691 3.96289 116.254 3.7963 116.844 3.68019C117.435 3.55903 117.988 3.49845 118.503 3.49845ZM118.934 8.07977C118.273 8.07977 117.758 8.19336 117.389 8.42053C117.026 8.64771 116.844 8.96322 116.844 9.36709C116.844 9.70027 116.945 9.95521 117.147 10.1319C117.349 10.3035 117.634 10.3894 118.003 10.3894C118.336 10.3894 118.654 10.3162 118.957 10.1698C119.265 10.0234 119.522 9.82648 119.729 9.57911V8.07977H118.934Z" fill="#004B77"/>
<path d="M35.264 8.00542C38.2374 7.9889 41.5825 8.6414 45.2993 9.96293L43.7383 15.9098C40.2858 14.6874 37.4775 14.0762 35.3135 14.0762C33.5625 14.0762 32.1832 14.4231 31.1755 15.1169C30.1678 15.8107 29.664 16.7523 29.664 17.9417C29.664 19.2302 30.1265 20.2543 31.0516 21.0142C31.9932 21.7741 33.7029 22.4762 36.1808 23.1204C39.8315 24.062 42.425 25.367 43.9613 27.0355C45.4976 28.6874 46.2657 30.967 46.2657 33.8744C46.2657 37.3929 45.0763 40.0938 42.6976 41.977C40.3354 43.8437 36.9572 44.777 32.5631 44.777C28.9785 44.777 25.1378 43.9676 21.041 42.3487L22.8746 36.5752C25.1378 37.3847 26.9879 37.9546 28.4251 38.285C29.8622 38.5988 31.2251 38.7558 32.5135 38.7558C34.3802 38.7558 35.8174 38.3593 36.825 37.5664C37.8492 36.757 38.3613 35.6419 38.3613 34.2213C38.3613 33.3127 38.1466 32.5528 37.7171 31.9416C37.2876 31.3304 36.5607 30.7853 35.5365 30.3062C34.5124 29.8107 33.0339 29.3233 31.1012 28.8443C27.8799 28.0679 25.526 26.862 24.0392 25.2266C22.5525 23.5912 21.8092 21.4355 21.8092 18.7594C21.8092 15.3399 22.982 12.6968 25.3277 10.8302C27.69 8.94701 31.002 8.00542 35.264 8.00542Z" fill="#37B5FE"/>
<path d="M62.9913 17.2231C67.3689 17.2231 70.7223 18.4207 73.0515 20.816C75.3807 23.1948 76.5453 26.6142 76.5453 31.0744C76.5453 35.5345 75.3807 38.9705 73.0515 41.3823C70.7223 43.7941 67.3689 45 62.9913 45C58.6633 45 55.3265 43.8024 52.9807 41.4071C50.635 38.9953 49.4622 35.5511 49.4622 31.0744C49.4622 26.6142 50.6268 23.1948 52.956 20.816C55.2852 18.4207 58.6303 17.2231 62.9913 17.2231ZM62.9913 22.9222C59.0763 22.9057 57.1188 25.6231 57.1188 31.0744C57.1188 36.5257 59.0763 39.2513 62.9913 39.2513C66.9229 39.2513 68.8887 36.5257 68.8887 31.0744C68.8887 25.6231 66.9229 22.9057 62.9913 22.9222Z" fill="#37B5FE"/>
<path d="M89.009 21.5346C91.2225 18.7924 94.1712 17.4213 97.8549 17.4213C99.7546 17.4213 101.382 17.8178 102.736 18.6107C104.107 19.3871 105.132 20.5187 105.809 22.0054C107.064 20.4526 108.452 19.3045 109.972 18.5611C111.491 17.8013 113.201 17.4213 115.101 17.4213C117.942 17.4213 120.131 18.239 121.667 19.8744C123.204 21.4933 123.972 23.7894 123.972 26.7629V44.4301H116.365V27.1841C116.365 25.6313 116.059 24.508 115.448 23.8142C114.837 23.1204 113.854 22.7735 112.499 22.7735C111.277 22.7735 110.162 23.0461 109.154 23.5912C108.146 24.1198 107.304 24.8714 106.627 25.8461C106.627 25.9122 106.643 26.0691 106.676 26.3169C106.709 26.5481 106.726 26.8207 106.726 27.1346V44.4301H99.1187V27.1841C99.1187 25.6313 98.8131 24.508 98.2018 23.8142C97.5906 23.1204 96.6077 22.7735 95.2532 22.7735C94.0638 22.7735 92.957 23.0543 91.9328 23.616C90.9087 24.1611 90.091 24.9045 89.4798 25.8461V44.4301H81.8727V17.8426H88.216L89.009 21.5346Z" fill="#37B5FE"/>
<path d="M3.12392 25.0261C3.41803 25.0261 3.70949 25.0672 3.9983 25.1493C4.28976 25.2288 4.56267 25.3467 4.81704 25.503L4.49113 26.1389C4.24207 26.0038 4.00758 25.9071 3.78766 25.8488C3.56774 25.7879 3.34649 25.7574 3.12392 25.7574C2.51186 25.7574 2.0389 25.9482 1.70504 26.3297C1.37119 26.7086 1.20426 27.2505 1.20426 27.9553C1.20426 28.6654 1.36854 29.2138 1.69709 29.6007C2.02565 29.9849 2.49331 30.177 3.10008 30.177C3.58231 30.177 4.07382 30.0631 4.5746 29.8352L4.86076 30.5029C4.5958 30.6274 4.30434 30.7268 3.98638 30.801C3.66842 30.8725 3.36239 30.9083 3.06828 30.9083C2.1992 30.9083 1.53546 30.6552 1.07708 30.1492C0.61869 29.6404 0.389497 28.9091 0.389497 27.9553C0.389497 27.3485 0.498132 26.8252 0.715402 26.3854C0.932672 25.9455 1.24533 25.609 1.65337 25.3758C2.06407 25.1427 2.55425 25.0261 3.12392 25.0261ZM7.10633 26.604C7.6283 26.604 8.02972 26.7417 8.31059 27.0173C8.5941 27.2902 8.73585 27.681 8.73585 28.1898V30.8526H8.14763L8.03635 30.3638C7.6283 30.7427 7.16992 30.9321 6.66119 30.9321C6.24254 30.9321 5.91002 30.8195 5.6636 30.5943C5.41718 30.3691 5.29397 30.067 5.29397 29.6881C5.29397 29.2483 5.47415 28.9052 5.8345 28.6587C6.19485 28.4123 6.70093 28.2891 7.35274 28.2891H7.96878V28.1739C7.94759 27.5777 7.64155 27.2796 7.05068 27.2796C6.87051 27.2796 6.66781 27.3074 6.44259 27.3631C6.21737 27.4161 5.99083 27.4889 5.76296 27.5817L5.55231 26.9617C5.79608 26.8477 6.0531 26.7603 6.32336 26.6993C6.59627 26.6357 6.85726 26.604 7.10633 26.604ZM7.40044 28.8734C6.97649 28.8734 6.64661 28.9436 6.4108 29.084C6.17498 29.2218 6.05707 29.4152 6.05707 29.6643C6.05707 29.8551 6.12199 30.0021 6.25182 30.1054C6.38165 30.2061 6.56315 30.2565 6.79632 30.2565C7.01889 30.2565 7.23616 30.2101 7.44813 30.1174C7.6601 30.022 7.83365 29.8948 7.96878 29.7358V28.8734H7.40044ZM10.6754 27.2558C10.8768 27.0332 11.098 26.8676 11.3391 26.759C11.5802 26.6503 11.8505 26.596 12.1499 26.596C12.595 26.596 12.9355 26.7245 13.1713 26.9815C13.4072 27.2385 13.5251 27.6121 13.5251 28.1023V30.8526H12.758V28.158C12.758 27.848 12.6944 27.6227 12.5672 27.4823C12.44 27.3419 12.236 27.2717 11.9552 27.2717C11.7061 27.2717 11.4729 27.3273 11.2557 27.4386C11.0384 27.5499 10.8635 27.7036 10.731 27.8996V30.8526H9.96793V26.6675H10.5879L10.6754 27.2558ZM16.176 26.604C16.698 26.604 17.0994 26.7417 17.3803 27.0173C17.6638 27.2902 17.8056 27.681 17.8056 28.1898V30.8526H17.2173L17.1061 30.3638C16.698 30.7427 16.2396 30.9321 15.7309 30.9321C15.3123 30.9321 14.9797 30.8195 14.7333 30.5943C14.4869 30.3691 14.3637 30.067 14.3637 29.6881C14.3637 29.2483 14.5439 28.9052 14.9042 28.6587C15.2646 28.4123 15.7706 28.2891 16.4224 28.2891H17.0385V28.1739C17.0173 27.5777 16.7113 27.2796 16.1204 27.2796C15.9402 27.2796 15.7375 27.3074 15.5123 27.3631C15.2871 27.4161 15.0605 27.4889 14.8327 27.5817L14.622 26.9617C14.8658 26.8477 15.1228 26.7603 15.3931 26.6993C15.666 26.6357 15.927 26.604 16.176 26.604ZM16.4701 28.8734C16.0462 28.8734 15.7163 28.9436 15.4805 29.084C15.2447 29.2218 15.1268 29.4152 15.1268 29.6643C15.1268 29.8551 15.1917 30.0021 15.3215 30.1054C15.4514 30.2061 15.6329 30.2565 15.866 30.2565C16.0886 30.2565 16.3059 30.2101 16.5178 30.1174C16.7298 30.022 16.9034 29.8948 17.0385 29.7358V28.8734H16.4701ZM19.0456 24.7479H19.8087V30.8526H19.0456V24.7479Z" fill="#004B77"/>
<defs>
<linearGradient id="paint0_linear_1456_2263" x1="128.266" y1="12.0712" x2="128.266" y2="34.1206" gradientUnits="userSpaceOnUse">
<stop stop-color="#38B6FF"/>
<stop offset="1" stop-color="#38B5FE"/>
</linearGradient>
</defs>
</svg>
