<svg width="43" height="33" viewBox="0 0 43 33" fill="none" xmlns="http://www.w3.org/2000/svg">
<path d="M35.7893 3.64543C33.0896 2.38227 30.2335 1.48473 27.2966 0.976562C26.9307 1.63795 26.5033 2.52752 26.2086 3.23522C23.042 2.75907 19.9046 2.75907 16.7962 3.23522C16.5016 2.52768 16.0646 1.63795 15.6954 0.976563C12.7555 1.48497 9.89703 2.38479 7.19607 3.65202C1.82135 11.7741 0.364309 19.6941 1.09275 27.5021C4.65762 30.1643 8.11233 31.7815 11.5088 32.8397C12.3529 31.6789 13.0991 30.4499 13.7397 29.1655C12.5202 28.7012 11.3445 28.1291 10.2267 27.4558C10.5209 27.2378 10.8081 27.0106 11.088 26.7745C17.8614 29.9427 25.2211 29.9427 31.9137 26.7745C32.1948 27.009 32.482 27.2362 32.7748 27.4558C31.6553 28.1308 30.4774 28.7042 29.2555 29.1689C29.8997 30.4585 30.6445 31.6887 31.4863 32.8429C34.886 31.7848 38.344 30.1676 41.9088 27.5021C42.7637 18.4508 40.4487 10.6034 35.7893 3.64543ZM14.6625 22.7004C12.6292 22.7004 10.9616 20.8021 10.9616 18.4905C10.9616 16.179 12.5936 14.2775 14.6625 14.2775C16.7316 14.2775 18.399 16.1756 18.3634 18.4905C18.3666 20.8021 16.7316 22.7004 14.6625 22.7004ZM28.3391 22.7004C26.3057 22.7004 24.6383 20.8021 24.6383 18.4905C24.6383 16.179 26.2702 14.2775 28.3391 14.2775C30.4081 14.2775 32.0755 16.1756 32.04 18.4905C32.04 20.8021 30.4081 22.7004 28.3391 22.7004Z" fill="#F5F6FF"/>
</svg>
