<svg width="83" height="65" viewBox="0 0 83 65" fill="none" xmlns="http://www.w3.org/2000/svg">
<path d="M70.1972 6.33667C64.7752 3.79976 59.0391 1.99717 53.1405 0.976562C52.4058 2.30488 51.5474 4.09148 50.9554 5.51281C44.5958 4.55654 38.2945 4.55654 32.0518 5.51281C31.4601 4.0918 30.5823 2.30488 29.8408 0.976563C23.9365 1.99764 18.1955 3.80482 12.771 6.34992C1.97646 22.6621 -0.949853 38.5687 0.513141 54.2502C7.67277 59.5967 14.6112 62.8447 21.4327 64.9701C23.128 62.6387 24.6266 60.1705 25.913 57.5909C23.4638 56.6584 21.1027 55.5093 18.8577 54.1572C19.4485 53.7193 20.0254 53.263 20.5875 52.7888C34.1911 59.1517 48.9721 59.1517 62.4136 52.7888C62.9781 53.2598 63.5548 53.7161 64.143 54.1572C61.8945 55.5129 59.5289 56.6643 57.0748 57.5976C58.3686 60.1878 59.8645 62.6584 61.5552 64.9766C68.3831 62.8515 75.328 59.6035 82.4876 54.2502C84.2045 36.0716 79.5552 20.311 70.1972 6.33667ZM27.7665 44.6064C23.6827 44.6064 20.3336 40.7939 20.3336 36.1514C20.3336 31.5089 23.6113 27.6899 27.7665 27.6899C31.922 27.6899 35.2707 31.5021 35.1993 36.1514C35.2058 40.7939 31.922 44.6064 27.7665 44.6064ZM55.2343 44.6064C51.1505 44.6064 47.8017 40.7939 47.8017 36.1514C47.8017 31.5089 51.0791 27.6899 55.2343 27.6899C59.3897 27.6899 62.7385 31.5021 62.6671 36.1514C62.6671 40.7939 59.3897 44.6064 55.2343 44.6064Z" fill="#7E1ECB"/>
</svg>
