<svg width="137" height="32" viewBox="0 0 137 32" fill="none" xmlns="http://www.w3.org/2000/svg">
<path d="M54.8713 10.3992C54.8713 9.01158 54.8135 7.97087 54.6979 7.27707C54.5822 6.54473 54.351 5.92801 54.0041 5.42694C53.6572 4.92586 53.0983 4.34769 52.3274 3.69243L52.8477 2.94081H62.9079L63.3126 3.86588C62.4261 4.36696 61.7901 4.81022 61.4046 5.19567C61.0192 5.58111 60.7494 6.06292 60.5952 6.64109C60.4796 7.21926 60.4217 8.12505 60.4217 9.35848V25.4894C60.4217 26.7228 60.5952 27.5322 60.9421 27.9177C61.289 28.3031 62.0599 28.4958 63.2548 28.4958H65.4518C66.5696 28.4958 67.4561 28.1297 68.1114 27.3973C68.7666 26.6264 69.4412 25.181 70.135 23.0611L71.2913 23.4658V30.4038L70.7131 30.9241C70.212 30.5387 69.6532 30.2689 69.0364 30.1147C68.4197 29.9991 67.4947 29.9413 66.2612 29.9413H52.0383L51.6914 28.9006C52.655 28.6307 53.3488 28.3802 53.7728 28.1489C54.1968 27.8791 54.4859 27.5322 54.6401 27.1082C54.7942 26.6842 54.8713 26.029 54.8713 25.1425V10.3992Z" fill="#F5F6FF"/>
<path d="M80.7141 26.6457C80.7141 27.802 81.0802 28.3802 81.8126 28.3802C82.5449 28.3802 83.258 28.0911 83.9518 27.5129L84.4143 28.0911C82.9882 29.6714 81.3115 30.4616 79.3843 30.4616C77.9967 30.4616 76.9945 30.1147 76.3778 29.4209C75.7611 28.6886 75.4527 27.5129 75.4527 25.8941V14.4464C75.4527 13.9067 75.2022 13.6369 74.7011 13.6369H72.9088L72.7354 13.0009C73.5063 12.3457 74.4699 11.8061 75.6262 11.3821C76.7825 10.9581 77.9389 10.7461 79.0952 10.7461C79.5577 10.7461 79.9432 10.8617 80.2515 11.093C80.5599 11.3242 80.7141 11.6326 80.7141 12.0181V26.6457ZM80.8297 1.37976C82.2559 1.95793 82.9689 2.82518 82.9689 3.98152C82.9689 5.33057 82.121 6.29419 80.425 6.87235L75.684 8.60686L74.9324 7.68179L80.8297 1.37976Z" fill="#F5F6FF"/>
<path d="M98.2854 10.7461C99.5188 10.7461 100.521 11.1123 101.292 11.8446C102.063 12.5384 102.448 13.4442 102.448 14.562C102.448 15.6027 102.14 16.4507 101.523 17.1059C100.906 17.7226 100.097 18.031 99.0948 18.031C98.324 18.031 97.6109 17.8768 96.9556 17.5685C97.6494 16.9903 97.9963 16.123 97.9963 14.9667C97.9963 14.4271 97.8807 14.0031 97.6494 13.6947C97.4182 13.3864 97.1098 13.2322 96.7244 13.2322C95.7993 13.2322 95.0284 14.1765 94.4117 16.0652C93.795 17.9154 93.4866 20.228 93.4866 23.0032C93.4866 24.4294 93.5637 25.5664 93.7179 26.4144C93.9106 27.2624 94.219 28.0526 94.643 28.7849L95.1055 29.3631L94.643 29.9413H86.2595L85.9126 28.9584L86.7221 28.7849C87.3388 28.6307 87.7435 28.3995 87.9362 28.0911C88.1289 27.7442 88.2253 27.089 88.2253 26.1253V14.8511C88.2253 14.1187 87.9748 13.7526 87.4737 13.7526H85.6814L85.4501 13.1166C86.1824 12.4613 87.0882 11.9217 88.1675 11.4977C89.2853 11.0737 90.3838 10.8617 91.463 10.8617C91.9641 10.8617 92.3688 10.9773 92.6772 11.2086C92.9855 11.4399 93.1397 11.7482 93.1397 12.1337V16.3543H93.3132C94.1226 12.6155 95.78 10.7461 98.2854 10.7461Z" fill="#F5F6FF"/>
<path d="M111.316 26.6457C111.316 27.802 111.682 28.3802 112.415 28.3802C113.147 28.3802 113.86 28.0911 114.554 27.5129L115.017 28.0911C113.59 29.6714 111.914 30.4616 109.987 30.4616C108.599 30.4616 107.597 30.1147 106.98 29.4209C106.363 28.6886 106.055 27.5129 106.055 25.8941V14.4464C106.055 13.9067 105.804 13.6369 105.303 13.6369H103.511L103.338 13.0009C104.108 12.3457 105.072 11.8061 106.228 11.3821C107.385 10.9581 108.541 10.7461 109.697 10.7461C110.16 10.7461 110.545 10.8617 110.854 11.093C111.162 11.3242 111.316 11.6326 111.316 12.0181V26.6457ZM105.477 5.19567C105.477 4.50187 105.862 3.73098 106.633 2.883C107.404 2.03502 108.117 1.61103 108.772 1.61103C109.466 1.61103 110.199 2.03502 110.969 2.883C111.779 3.73098 112.184 4.50187 112.184 5.19567C112.184 5.92801 111.779 6.71818 110.969 7.56616C110.199 8.37559 109.466 8.78031 108.772 8.78031C108.117 8.78031 107.404 8.37559 106.633 7.56616C105.862 6.71818 105.477 5.92801 105.477 5.19567Z" fill="#F5F6FF"/>
<path d="M122.933 17.1637C122.123 17.6263 121.159 17.8575 120.042 17.8575C119.232 17.8575 118.596 17.6263 118.134 17.1637C117.671 16.6627 117.44 15.9689 117.44 15.0823C117.44 13.7718 118.076 12.7311 119.348 11.9602C120.658 11.1508 122.354 10.7461 124.436 10.7461C126.903 10.7461 128.83 11.2857 130.217 12.3649C131.644 13.4442 132.357 14.9089 132.357 16.759V26.7613C132.357 27.8406 132.742 28.3802 133.513 28.3802C134.245 28.3802 134.958 28.0911 135.652 27.5129L136.115 28.0911C134.689 29.6714 132.993 30.4616 131.027 30.4616C129.871 30.4616 128.984 30.1725 128.367 29.5944C127.789 29.0162 127.442 28.1104 127.327 26.877H127.095C126.479 27.9948 125.65 28.8813 124.609 29.5365C123.607 30.1532 122.451 30.4616 121.14 30.4616C119.676 30.4616 118.5 30.0183 117.613 29.1318C116.727 28.2067 116.284 27.0119 116.284 25.5472C116.284 23.8898 117.074 22.5792 118.654 21.6156C120.234 20.652 122.374 20.1702 125.072 20.1702C125.573 20.1702 126.286 20.2088 127.211 20.2858V17.395C127.211 15.5063 126.98 14.1573 126.517 13.3478C126.055 12.4999 125.303 12.0759 124.262 12.0759C123.53 12.0759 122.952 12.3071 122.528 12.7697C122.104 13.2322 121.892 13.8296 121.892 14.562C121.892 15.7183 122.239 16.5856 122.933 17.1637ZM123.8 27.5708C126.074 27.5708 127.211 25.5086 127.211 21.3844C125.284 21.3844 123.838 21.712 122.875 22.3673C121.911 22.984 121.429 23.8705 121.429 25.0268C121.429 25.7977 121.641 26.4144 122.065 26.877C122.489 27.3395 123.067 27.5708 123.8 27.5708Z" fill="#F5F6FF"/>
<path fill-rule="evenodd" clip-rule="evenodd" d="M20.7663 1.8609C18.6644 4.09523 17.0401 7.18392 16.2702 10.4108C14.9916 15.7688 16.0759 22.0419 19.0461 26.4675C20.0432 27.9534 22.2517 30.2028 22.7132 30.2028C23.158 30.2028 25.2772 28.0179 26.3368 26.4675C29.3052 22.1231 30.4071 15.7794 29.126 10.4108C28.3561 7.18392 26.7318 4.09523 24.6299 1.8609C23.6671 0.837441 22.7979 0 22.6981 0C22.5983 0 21.7291 0.837441 20.7663 1.8609ZM7.74519 6.35151C7.68616 6.44715 7.45346 7.19353 7.22831 8.01038C6.58146 10.3566 6.68466 14.4207 7.4562 16.9998C8.56959 20.721 10.3509 23.6218 13.0504 26.1099C14.6527 27.5868 16.3768 28.7425 17.9528 29.3965L18.8136 29.7534L17.7657 28.33C16.3372 26.3897 14.9932 23.4907 14.2974 20.8491C13.5574 18.04 13.448 12.9687 14.0734 10.4538C14.2866 9.59648 14.461 8.79977 14.461 8.68353C14.461 8.56707 13.7658 8.12158 12.916 7.69371C10.5577 6.50596 8.05179 5.85568 7.74519 6.35151ZM35.0538 6.6048C33.47 7.12466 30.9352 8.40393 30.9352 8.68376C30.9352 8.8 31.1096 9.59648 31.3228 10.4538C31.9482 12.9687 31.8388 18.04 31.0988 20.8491C30.4085 23.4696 29.0718 26.3471 27.6301 28.3151C27.0539 29.1018 26.6386 29.7452 26.7073 29.7452C26.7757 29.7452 27.369 29.4738 28.0255 29.1423C32.8316 26.7153 36.2999 22.4684 37.942 16.9998C38.7246 14.3944 38.8033 10.1502 38.1136 7.77951C37.7125 6.40116 37.6306 6.28859 36.9966 6.24214C36.6202 6.21446 35.7459 6.3776 35.0538 6.6048ZM3.02051 17.7762C2.7059 17.8286 1.89751 18.0265 1.22413 18.2157L0 18.5596L0.155133 19.4046C0.641123 22.0503 2.33408 24.9036 4.81643 27.2596C8.05751 30.336 12.6245 32.1614 16.6463 31.9875L18.2363 31.9189L16.9223 31.3029C11.9347 28.9652 7.43263 23.9284 5.86644 18.934L5.45389 17.6183L4.5231 17.6494C4.01125 17.6666 3.33512 17.7236 3.02051 17.7762ZM39.5387 18.9058C37.9629 23.9298 33.4741 28.9592 28.4739 31.3029L27.1599 31.9189L28.7499 31.9875C32.9336 32.1683 37.3307 30.379 40.753 27.1027C43.074 24.8809 44.7692 21.9737 45.2406 19.4071L45.3953 18.5647L44.1762 18.2027C43.5055 18.0034 42.2826 17.7778 41.4584 17.7014L39.9601 17.562L39.5387 18.9058Z" fill="#F5F6FF"/>
</svg>
